<svg width="23" height="16" viewBox="0 0 23 16" fill="none" xmlns="http://www.w3.org/2000/svg">
<path fill-rule="evenodd" clip-rule="evenodd" d="M22.0408 7.34599C22.1839 7.51097 22.2739 7.7233 22.2842 7.95634C22.2848 7.97122 22.2852 7.98611 22.2852 8.00099C22.2852 8.25159 22.193 8.48065 22.0407 8.65613L16.0444 15.6518C15.685 16.0711 15.0537 16.1197 14.6344 15.7603C14.215 15.4008 14.1665 14.7695 14.5259 14.3502L19.1109 9.00099H1.28516C0.732871 9.00099 0.285156 8.55328 0.285156 8.00099C0.285156 7.44871 0.732871 7.00099 1.28516 7.00099H19.1109L14.5259 1.65179C14.1665 1.23246 14.215 0.60116 14.6344 0.241738C15.0537 -0.117684 15.685 -0.0691226 16.0444 0.350203L22.0408 7.34599Z" fill="#9C69E2"/>
</svg>
