<svg width="433" height="358" viewBox="0 0 433 358" fill="none" xmlns="http://www.w3.org/2000/svg">
    <path opacity="0.1" fill-rule="evenodd" clip-rule="evenodd"
          d="M44.0049 41.7355C48.0422 17.6466 68.8923 0.00012207 93.3172 0.00012207H383C410.614 0.00012207 433 22.3859 433 50.0001V308C433 335.614 410.614 358 383 358H50.0769C19.1616 358 -4.34535 330.226 0.764719 299.736L44.0049 41.7355ZM218.501 40.9427C218.405 36.2874 218.911 32.4004 219.963 29.636C222.013 24.2495 225.105 20.0993 229.213 17.6399C233.332 15.1742 238.386 14.4599 244.247 15.791C255.401 18.3239 269.578 28.2798 286.309 47.9616C286.806 47.8208 287.322 47.7043 287.853 47.6122C291.496 46.9789 295.966 47.4518 300.421 49.1369C304.876 50.8219 308.54 53.4259 310.852 56.3115C313.152 59.1818 314.198 62.456 313.094 65.376C312.675 66.4838 311.99 67.4249 311.103 68.2009C322.365 73.1238 334.104 73.8631 345.794 74.3181C346.635 74.3509 347.477 74.3821 348.318 74.4134C367.206 75.1147 385.951 75.8107 401.576 93.5335C408.093 100.926 411.122 108.329 411.054 115.319C410.986 122.315 407.818 128.777 402.176 134.279C390.921 145.254 369.738 152.51 342.913 152.891L342.883 152.892L342.853 152.89C289.462 149.371 256.69 123.954 238.292 96.7297C229.099 83.1275 223.497 69.0787 220.698 57.0917C219.298 51.0981 218.597 45.6102 218.501 40.9427ZM309.569 67.5027C310.573 66.7844 311.296 65.8878 311.691 64.8453C312.531 62.6225 311.811 59.9065 309.682 57.2494C307.565 54.6074 304.139 52.1467 299.89 50.5399C295.642 48.9331 291.445 48.5102 288.11 49.09C287.862 49.1331 287.62 49.1814 287.383 49.235C287.798 49.7301 288.215 50.2311 288.632 50.738C295.309 58.8375 302.335 64.0771 309.569 67.5027ZM285.813 49.6976C286.364 50.3516 286.918 51.0164 287.475 51.6921C294.019 59.6311 300.904 64.8856 307.972 68.3952C307.141 68.7547 306.198 69.0295 305.158 69.2104C301.822 69.7902 297.625 69.3674 293.377 67.7606C289.129 66.1538 285.702 63.693 283.585 61.0511C281.457 58.3939 280.736 55.678 281.577 53.4551C282.209 51.7825 283.69 50.4856 285.813 49.6976ZM284.79 48.4918C282.617 49.4105 280.945 50.8852 280.174 52.9245C279.069 55.8444 280.115 59.1187 282.415 61.989C284.727 64.8745 288.391 67.4785 292.846 69.1636C297.301 70.8486 301.772 71.3215 305.415 70.6883C306.999 70.4128 308.455 69.9208 309.684 69.2101C321.47 74.5818 333.728 75.3495 345.736 75.817C346.542 75.8484 347.346 75.8784 348.15 75.9085C367.122 76.6173 385.26 77.2949 400.451 94.5255C406.796 101.722 409.617 108.782 409.554 115.305C409.491 121.821 406.547 127.921 401.129 133.205C390.266 143.797 369.543 151.007 342.922 151.391C290.043 147.898 257.689 122.753 239.535 95.8898C230.449 82.4459 224.918 68.5674 222.159 56.7505C220.779 50.8421 220.094 45.459 220 40.9119C219.907 36.3525 220.409 32.6813 221.365 30.1696C223.331 25.0037 226.241 21.1677 229.984 18.9269C233.716 16.6925 238.363 15.9927 243.915 17.2537C254.507 19.6591 268.289 29.1816 284.79 48.4918Z"
          fill="#68C9BA"/>
</svg>
