<svg width="433" height="358" viewBox="0 0 433 358" fill="none" xmlns="http://www.w3.org/2000/svg">
<path opacity="0.1" fill-rule="evenodd" clip-rule="evenodd" d="M44.0049 41.737C48.0422 17.6481 68.8923 0.00158691 93.3172 0.00158691H383C410.614 0.00158691 433 22.3873 433 50.0016V308.002C433 335.616 410.614 358.002 383 358.002H50.0769C19.1616 358.002 -4.34535 330.227 0.764718 299.737L44.0049 41.737ZM357.92 286.949C351.651 288.039 347.104 290.986 345.45 295.357C343.797 299.729 345.256 304.947 349.235 309.913C353.202 314.864 359.59 319.441 367.474 322.423C375.358 325.405 383.176 326.202 389.427 325.115C395.697 324.026 400.244 321.079 401.897 316.708C403.55 312.336 402.092 307.118 398.113 302.152C394.146 297.2 387.757 292.624 379.873 289.642C371.989 286.66 364.171 285.863 357.92 286.949ZM357.664 285.472C364.222 284.332 372.313 285.179 380.404 288.239C388.495 291.299 395.121 296.019 399.283 301.214C403.433 306.393 405.217 312.17 403.3 317.238C401.383 322.307 396.223 325.457 389.684 326.593C383.126 327.733 375.034 326.886 366.944 323.826C358.853 320.766 352.226 316.046 348.064 310.851C343.914 305.672 342.13 299.895 344.047 294.827C345.964 289.758 351.125 286.608 357.664 285.472ZM331.626 50.1875C328.711 46.6083 323.823 42.8604 317.371 39.3103C310.909 35.7543 302.836 32.3737 293.51 29.5481C274.856 23.8971 251.148 20.4544 225.207 22.2917C173.3 25.9679 112.47 50.7842 65.3339 121.274L65.3172 121.299L65.3025 121.325C44.5613 158.46 37.7767 193.222 43.8927 217.253C46.9557 229.288 53.2662 238.663 62.7094 244.238C72.1474 249.809 84.6124 251.525 99.8735 248.447C136.453 241.071 152.195 216.004 168.166 190.574L168.183 190.546C168.883 189.432 169.582 188.318 170.284 187.205C187.036 160.633 205.098 134.376 248.376 127.134C292.034 119.83 318.604 107.812 331.403 93.9872C337.822 87.0539 340.796 79.6442 340.677 72.1564C340.559 64.681 337.361 57.228 331.626 50.1875ZM225.313 23.7879C173.841 27.4333 113.455 52.0244 66.5975 122.083C45.9597 159.043 39.3657 193.384 45.3464 216.883C48.3324 228.616 54.4413 237.615 63.4719 242.946C72.5077 248.28 84.5711 250.003 99.577 246.977C135.514 239.73 150.936 215.18 166.955 189.68C167.64 188.59 168.326 187.498 169.015 186.405C185.8 159.782 204.167 133.01 248.128 125.655C291.708 118.363 317.855 106.413 330.302 92.9682C336.507 86.2671 339.289 79.2175 339.178 72.1801C339.066 65.1303 336.049 57.9923 330.463 51.1348C327.719 47.7651 323.016 44.1283 316.648 40.6244C310.291 37.1265 302.318 33.7839 293.075 30.9837C274.589 25.3833 251.064 21.9642 225.313 23.7879Z" fill="#2D9CDB"/>
</svg>
