<svg width="433" height="358" viewBox="0 0 433 358" fill="none" xmlns="http://www.w3.org/2000/svg">
<path opacity="0.1" fill-rule="evenodd" clip-rule="evenodd" d="M93.3172 0C68.8923 0 48.0422 17.6465 44.0049 41.7354L0.764718 299.735C-4.34535 330.225 19.1616 358 50.0769 358H383C410.614 358 433 335.614 433 308V50C433 22.3858 410.614 0 383 0H93.3172ZM403.698 329.521C404.84 326.518 405.392 322.29 405.287 317.219C405.183 312.136 404.419 306.158 402.894 299.627C399.843 286.566 393.739 271.257 383.722 256.435C363.674 226.77 327.963 199.071 269.777 195.236L269.747 195.234L269.717 195.235C240.48 195.65 217.405 203.559 205.152 215.507C199.011 221.496 195.567 228.525 195.493 236.13C195.42 243.73 198.712 251.786 205.81 259.837C222.825 279.136 243.234 279.894 263.83 280.659C264.746 280.693 265.662 280.727 266.577 280.763C288.124 281.602 309.849 283.326 328.947 306.496C348.291 329.963 364.604 341.69 377.3 344.573C383.676 346.021 389.168 345.243 393.641 342.565C398.103 339.894 401.466 335.383 403.698 329.521ZM382.479 257.275C362.675 227.971 327.382 200.544 269.708 196.735C240.674 197.153 218.06 205.016 206.199 216.581C200.282 222.352 197.062 229.018 196.993 236.145C196.924 243.277 200.01 250.99 206.935 258.845C223.517 277.652 243.319 278.392 263.999 279.164C264.491 279.183 264.984 279.201 265.477 279.22C265.863 279.234 266.249 279.249 266.636 279.264C288.243 280.105 310.566 281.838 330.104 305.542C349.397 328.947 365.441 340.342 377.632 343.111C383.699 344.489 388.784 343.725 392.87 341.278C396.968 338.826 400.148 334.629 402.296 328.987C403.342 326.237 403.89 322.225 403.788 317.25C403.686 312.287 402.938 306.414 401.433 299.968C398.422 287.077 392.389 271.939 382.479 257.275Z" fill="#9C69E2"/>
</svg>
